<mxfile host="Electron" agent="Mozilla/5.0 (Windows NT 10.0; Win64; x64) AppleWebKit/537.36 (KHTML, like Gecko) draw.io/26.0.4 Chrome/128.0.6613.186 Electron/32.2.5 Safari/537.36" border="50" scale="3" compressed="false" locked="false" version="26.0.4">
  <diagram name="Blank" id="YmL12bMKpDGza6XwsDPr">
    <mxGraphModel dx="1477" dy="627" grid="1" gridSize="10" guides="1" tooltips="1" connect="1" arrows="1" fold="1" page="0" pageScale="1" pageWidth="827" pageHeight="1169" background="none" math="1" shadow="0">
      <root>
        <mxCell id="X5NqExCQtvZxIxQ7pmgY-0" />
        <mxCell id="1" parent="X5NqExCQtvZxIxQ7pmgY-0" />
        <mxCell id="KleUgi4IGlu6Z6MUiITj-2" value="&lt;font face=&quot;Comic Sans MS&quot;&gt;EMAIL&lt;/font&gt;&lt;div&gt;&lt;font face=&quot;Comic Sans MS&quot;&gt;SERVICE&lt;/font&gt;&lt;/div&gt;" style="ellipse;whiteSpace=wrap;html=1;align=center;container=1;recursiveResize=0;treeFolding=1;strokeWidth=2;sketch=1;curveFitting=1;jiggle=2;fillColor=#fad9d5;strokeColor=#ae4132;" vertex="1" parent="1">
          <mxGeometry x="-206" y="370" width="108" height="53" as="geometry" />
        </mxCell>
        <mxCell id="KleUgi4IGlu6Z6MUiITj-3" value="" style="curved=1;endArrow=classic;html=1;rounded=0;sketch=1;curveFitting=1;jiggle=2;entryX=0;entryY=0.5;entryDx=0;entryDy=0;fillColor=#f8cecc;gradientColor=#ea6b66;strokeColor=#b85450;exitX=1.008;exitY=0.448;exitDx=0;exitDy=0;exitPerimeter=0;" edge="1" parent="1" source="KleUgi4IGlu6Z6MUiITj-2" target="KleUgi4IGlu6Z6MUiITj-9">
          <mxGeometry width="50" height="50" relative="1" as="geometry">
            <mxPoint x="-98" y="396" as="sourcePoint" />
            <mxPoint x="129" y="402" as="targetPoint" />
            <Array as="points">
              <mxPoint x="-48" y="396" />
              <mxPoint x="14" y="372" />
            </Array>
          </mxGeometry>
        </mxCell>
        <mxCell id="KleUgi4IGlu6Z6MUiITj-5" value="process_email" style="text;html=1;resizable=0;points=[];align=center;verticalAlign=middle;labelBackgroundColor=none;rotation=-5;fontFamily=Comic Sans MS;" vertex="1" connectable="0" parent="1">
          <mxGeometry x="-50.0004967815438" y="379.9955980773647" as="geometry">
            <mxPoint x="-2.6071269037027633" y="-2.490560039025207" as="offset" />
          </mxGeometry>
        </mxCell>
        <mxCell id="KleUgi4IGlu6Z6MUiITj-6" value="return action,supplier,category" style="text;html=1;align=center;verticalAlign=middle;whiteSpace=wrap;rounded=0;rotation=0;fontFamily=Comic Sans MS;fontStyle=1" vertex="1" parent="1">
          <mxGeometry x="-86" y="385" width="186" height="30" as="geometry" />
        </mxCell>
        <mxCell id="KleUgi4IGlu6Z6MUiITj-7" value="apply_rule" style="text;html=1;align=center;verticalAlign=middle;whiteSpace=wrap;rounded=0;rotation=10;fontFamily=Comic Sans MS;" vertex="1" parent="1">
          <mxGeometry x="51" y="365" width="60" height="30" as="geometry" />
        </mxCell>
        <mxCell id="KleUgi4IGlu6Z6MUiITj-40" style="edgeStyle=orthogonalEdgeStyle;rounded=0;orthogonalLoop=1;jettySize=auto;html=1;entryX=0;entryY=0.5;entryDx=0;entryDy=0;curved=1;sketch=1;curveFitting=1;jiggle=2;fillColor=#ffe6cc;strokeColor=#d79b00;" edge="1" parent="1" source="KleUgi4IGlu6Z6MUiITj-9" target="KleUgi4IGlu6Z6MUiITj-17">
          <mxGeometry relative="1" as="geometry" />
        </mxCell>
        <mxCell id="KleUgi4IGlu6Z6MUiITj-41" value="&lt;font face=&quot;Comic Sans MS&quot;&gt;Delivery&lt;/font&gt;" style="edgeLabel;html=1;align=center;verticalAlign=middle;resizable=0;points=[];" vertex="1" connectable="0" parent="KleUgi4IGlu6Z6MUiITj-40">
          <mxGeometry x="0.3099" y="-9" relative="1" as="geometry">
            <mxPoint as="offset" />
          </mxGeometry>
        </mxCell>
        <mxCell id="KleUgi4IGlu6Z6MUiITj-42" style="edgeStyle=orthogonalEdgeStyle;rounded=0;orthogonalLoop=1;jettySize=auto;html=1;entryX=0;entryY=0.5;entryDx=0;entryDy=0;curved=1;sketch=1;curveFitting=1;jiggle=2;fillColor=#fff2cc;strokeColor=#d6b656;" edge="1" parent="1" source="KleUgi4IGlu6Z6MUiITj-9" target="KleUgi4IGlu6Z6MUiITj-22">
          <mxGeometry relative="1" as="geometry" />
        </mxCell>
        <mxCell id="KleUgi4IGlu6Z6MUiITj-43" value="&lt;font face=&quot;Comic Sans MS&quot;&gt;Progress&lt;/font&gt;" style="edgeLabel;html=1;align=center;verticalAlign=middle;resizable=0;points=[];" vertex="1" connectable="0" parent="KleUgi4IGlu6Z6MUiITj-42">
          <mxGeometry x="0.4938" y="-8" relative="1" as="geometry">
            <mxPoint as="offset" />
          </mxGeometry>
        </mxCell>
        <mxCell id="KleUgi4IGlu6Z6MUiITj-44" style="edgeStyle=orthogonalEdgeStyle;rounded=0;orthogonalLoop=1;jettySize=auto;html=1;entryX=0;entryY=0.5;entryDx=0;entryDy=0;curved=1;sketch=1;curveFitting=1;jiggle=2;fillColor=#dae8fc;strokeColor=#6c8ebf;" edge="1" parent="1" source="KleUgi4IGlu6Z6MUiITj-9" target="KleUgi4IGlu6Z6MUiITj-26">
          <mxGeometry relative="1" as="geometry" />
        </mxCell>
        <mxCell id="KleUgi4IGlu6Z6MUiITj-46" value="&lt;font face=&quot;Comic Sans MS&quot;&gt;TestReport&lt;/font&gt;" style="edgeLabel;html=1;align=center;verticalAlign=middle;resizable=0;points=[];" vertex="1" connectable="0" parent="KleUgi4IGlu6Z6MUiITj-44">
          <mxGeometry x="0.1197" y="3" relative="1" as="geometry">
            <mxPoint as="offset" />
          </mxGeometry>
        </mxCell>
        <mxCell id="KleUgi4IGlu6Z6MUiITj-47" style="edgeStyle=orthogonalEdgeStyle;rounded=0;orthogonalLoop=1;jettySize=auto;html=1;entryX=0;entryY=0.5;entryDx=0;entryDy=0;curved=1;sketch=1;curveFitting=1;jiggle=2;fillColor=#d5e8d4;strokeColor=#82b366;" edge="1" parent="1" source="KleUgi4IGlu6Z6MUiITj-9" target="KleUgi4IGlu6Z6MUiITj-33">
          <mxGeometry relative="1" as="geometry" />
        </mxCell>
        <mxCell id="KleUgi4IGlu6Z6MUiITj-48" value="&lt;font face=&quot;Comic Sans MS&quot;&gt;Others&lt;/font&gt;" style="edgeLabel;html=1;align=center;verticalAlign=middle;resizable=0;points=[];fontFamily=Helvetica;fontSize=11;fontColor=default;labelBackgroundColor=default;" vertex="1" connectable="0" parent="KleUgi4IGlu6Z6MUiITj-47">
          <mxGeometry x="0.1355" relative="1" as="geometry">
            <mxPoint as="offset" />
          </mxGeometry>
        </mxCell>
        <mxCell id="KleUgi4IGlu6Z6MUiITj-9" value="&lt;font face=&quot;Comic Sans MS&quot;&gt;Email&lt;/font&gt;&lt;div&gt;&lt;font face=&quot;Comic Sans MS&quot;&gt;Processor&lt;/font&gt;&lt;/div&gt;" style="rounded=1;whiteSpace=wrap;html=1;glass=0;sketch=1;curveFitting=1;jiggle=2;shadow=0;fillColor=#b1ddf0;strokeColor=#10739e;" vertex="1" parent="1">
          <mxGeometry x="117" y="366.5" width="120" height="60" as="geometry" />
        </mxCell>
        <mxCell id="KleUgi4IGlu6Z6MUiITj-10" value="Next" style="text;html=1;align=center;verticalAlign=middle;whiteSpace=wrap;rounded=0;fontFamily=Comic Sans MS;" vertex="1" parent="1">
          <mxGeometry x="-10" y="340" width="60" height="30" as="geometry" />
        </mxCell>
        <mxCell id="KleUgi4IGlu6Z6MUiITj-56" value="" style="edgeStyle=orthogonalEdgeStyle;shape=connector;curved=1;rounded=0;sketch=1;jiggle=2;curveFitting=1;orthogonalLoop=1;jettySize=auto;html=1;strokeColor=#d79b00;align=center;verticalAlign=middle;fontFamily=Helvetica;fontSize=11;fontColor=default;labelBackgroundColor=default;endArrow=classic;fillColor=#ffe6cc;entryX=0;entryY=0.5;entryDx=0;entryDy=0;" edge="1" parent="1" source="KleUgi4IGlu6Z6MUiITj-17" target="KleUgi4IGlu6Z6MUiITj-93">
          <mxGeometry relative="1" as="geometry">
            <mxPoint x="670" y="225" as="targetPoint" />
          </mxGeometry>
        </mxCell>
        <mxCell id="KleUgi4IGlu6Z6MUiITj-58" value="By" style="edgeLabel;html=1;align=center;verticalAlign=middle;resizable=0;points=[];rounded=1;sketch=1;jiggle=2;curveFitting=1;strokeColor=default;fontFamily=Comic Sans MS;fontSize=11;fontColor=default;labelBackgroundColor=default;fillColor=default;" vertex="1" connectable="0" parent="KleUgi4IGlu6Z6MUiITj-56">
          <mxGeometry x="-0.0041" y="1" relative="1" as="geometry">
            <mxPoint as="offset" />
          </mxGeometry>
        </mxCell>
        <mxCell id="KleUgi4IGlu6Z6MUiITj-59" value="" style="edgeLabel;html=1;align=center;verticalAlign=middle;resizable=0;points=[];rounded=1;sketch=1;jiggle=2;curveFitting=1;strokeColor=default;fontFamily=Helvetica;fontSize=11;fontColor=default;labelBackgroundColor=default;fillColor=default;" vertex="1" connectable="0" parent="KleUgi4IGlu6Z6MUiITj-56">
          <mxGeometry x="0.0782" y="2" relative="1" as="geometry">
            <mxPoint as="offset" />
          </mxGeometry>
        </mxCell>
        <mxCell id="KleUgi4IGlu6Z6MUiITj-17" value="&lt;font face=&quot;Comic Sans MS&quot;&gt;Delivery&lt;/font&gt;&lt;br&gt;&lt;div&gt;&lt;font face=&quot;Comic Sans MS&quot;&gt;Processor&lt;/font&gt;&lt;/div&gt;" style="rounded=1;whiteSpace=wrap;html=1;glass=0;sketch=1;curveFitting=1;jiggle=2;shadow=0;fillColor=#ffe6cc;strokeColor=#d79b00;" vertex="1" parent="1">
          <mxGeometry x="368" y="195" width="120" height="60" as="geometry" />
        </mxCell>
        <mxCell id="KleUgi4IGlu6Z6MUiITj-62" value="" style="edgeStyle=orthogonalEdgeStyle;shape=connector;curved=1;rounded=0;sketch=1;jiggle=2;curveFitting=1;orthogonalLoop=1;jettySize=auto;html=1;strokeColor=#d6b656;align=center;verticalAlign=middle;fontFamily=Helvetica;fontSize=11;fontColor=default;labelBackgroundColor=default;endArrow=classic;fillColor=#fff2cc;entryX=0;entryY=0.5;entryDx=0;entryDy=0;" edge="1" parent="1" source="KleUgi4IGlu6Z6MUiITj-22" target="KleUgi4IGlu6Z6MUiITj-98">
          <mxGeometry relative="1" as="geometry" />
        </mxCell>
        <mxCell id="KleUgi4IGlu6Z6MUiITj-63" value="&lt;font face=&quot;Comic Sans MS&quot;&gt;By&lt;/font&gt;" style="edgeLabel;html=1;align=center;verticalAlign=middle;resizable=0;points=[];rounded=1;sketch=1;jiggle=2;curveFitting=1;strokeColor=default;fontFamily=Helvetica;fontSize=11;fontColor=default;labelBackgroundColor=default;fillColor=default;" vertex="1" connectable="0" parent="KleUgi4IGlu6Z6MUiITj-62">
          <mxGeometry x="-0.0111" y="1" relative="1" as="geometry">
            <mxPoint as="offset" />
          </mxGeometry>
        </mxCell>
        <mxCell id="KleUgi4IGlu6Z6MUiITj-22" value="&lt;font face=&quot;Comic Sans MS&quot;&gt;Progress&lt;/font&gt;&lt;br&gt;&lt;div&gt;&lt;font face=&quot;Comic Sans MS&quot;&gt;Processor&lt;/font&gt;&lt;/div&gt;" style="rounded=1;whiteSpace=wrap;html=1;glass=0;sketch=1;curveFitting=1;jiggle=2;shadow=0;fillColor=#fff2cc;strokeColor=#d6b656;" vertex="1" parent="1">
          <mxGeometry x="368" y="305" width="120" height="60" as="geometry" />
        </mxCell>
        <mxCell id="KleUgi4IGlu6Z6MUiITj-66" value="" style="edgeStyle=orthogonalEdgeStyle;shape=connector;curved=1;rounded=0;sketch=1;jiggle=2;curveFitting=1;orthogonalLoop=1;jettySize=auto;html=1;strokeColor=#6c8ebf;align=center;verticalAlign=middle;fontFamily=Helvetica;fontSize=11;fontColor=default;labelBackgroundColor=default;endArrow=classic;fillColor=#dae8fc;" edge="1" parent="1" source="KleUgi4IGlu6Z6MUiITj-26" target="KleUgi4IGlu6Z6MUiITj-65">
          <mxGeometry relative="1" as="geometry" />
        </mxCell>
        <mxCell id="KleUgi4IGlu6Z6MUiITj-69" value="&lt;font face=&quot;Comic Sans MS&quot;&gt;By&lt;/font&gt;" style="edgeLabel;html=1;align=center;verticalAlign=middle;resizable=0;points=[];rounded=1;sketch=1;jiggle=2;curveFitting=1;strokeColor=default;fontFamily=Helvetica;fontSize=11;fontColor=default;labelBackgroundColor=default;fillColor=default;" vertex="1" connectable="0" parent="KleUgi4IGlu6Z6MUiITj-66">
          <mxGeometry x="-0.0094" y="2" relative="1" as="geometry">
            <mxPoint as="offset" />
          </mxGeometry>
        </mxCell>
        <mxCell id="KleUgi4IGlu6Z6MUiITj-26" value="&lt;font face=&quot;Comic Sans MS&quot;&gt;TestReport&lt;/font&gt;&lt;div&gt;&lt;font face=&quot;Comic Sans MS&quot;&gt;Processor&lt;/font&gt;&lt;/div&gt;" style="rounded=1;whiteSpace=wrap;html=1;glass=0;sketch=1;curveFitting=1;jiggle=2;shadow=0;fillColor=#dae8fc;strokeColor=#6c8ebf;" vertex="1" parent="1">
          <mxGeometry x="368" y="415" width="120" height="60" as="geometry" />
        </mxCell>
        <mxCell id="KleUgi4IGlu6Z6MUiITj-75" value="" style="edgeStyle=orthogonalEdgeStyle;shape=connector;curved=1;rounded=0;sketch=1;jiggle=2;curveFitting=1;orthogonalLoop=1;jettySize=auto;html=1;strokeColor=#82b366;align=center;verticalAlign=middle;fontFamily=Helvetica;fontSize=11;fontColor=default;labelBackgroundColor=default;endArrow=classic;fillColor=#d5e8d4;" edge="1" parent="1" source="KleUgi4IGlu6Z6MUiITj-33" target="KleUgi4IGlu6Z6MUiITj-74">
          <mxGeometry relative="1" as="geometry" />
        </mxCell>
        <mxCell id="KleUgi4IGlu6Z6MUiITj-76" value="&lt;font face=&quot;Comic Sans MS&quot;&gt;Next&lt;/font&gt;" style="edgeLabel;html=1;align=center;verticalAlign=middle;resizable=0;points=[];rounded=1;sketch=1;jiggle=2;curveFitting=1;strokeColor=default;fontFamily=Helvetica;fontSize=11;fontColor=default;labelBackgroundColor=default;fillColor=default;" vertex="1" connectable="0" parent="KleUgi4IGlu6Z6MUiITj-75">
          <mxGeometry x="-0.0245" y="1" relative="1" as="geometry">
            <mxPoint as="offset" />
          </mxGeometry>
        </mxCell>
        <mxCell id="KleUgi4IGlu6Z6MUiITj-33" value="&lt;font face=&quot;Comic Sans MS&quot;&gt;Other&lt;/font&gt;&lt;br&gt;&lt;div&gt;&lt;font face=&quot;Comic Sans MS&quot;&gt;Processor&lt;/font&gt;&lt;/div&gt;" style="rounded=1;whiteSpace=wrap;html=1;glass=0;sketch=1;curveFitting=1;jiggle=2;shadow=0;fillColor=#d5e8d4;strokeColor=#82b366;" vertex="1" parent="1">
          <mxGeometry x="368" y="526" width="120" height="59" as="geometry" />
        </mxCell>
        <mxCell id="KleUgi4IGlu6Z6MUiITj-78" value="" style="edgeStyle=orthogonalEdgeStyle;shape=connector;curved=1;rounded=0;sketch=1;jiggle=2;curveFitting=1;orthogonalLoop=1;jettySize=auto;html=1;strokeColor=#d79b00;align=center;verticalAlign=middle;fontFamily=Helvetica;fontSize=11;fontColor=default;labelBackgroundColor=default;endArrow=classic;fillColor=#ffe6cc;" edge="1" parent="1" source="KleUgi4IGlu6Z6MUiITj-55" target="KleUgi4IGlu6Z6MUiITj-77">
          <mxGeometry relative="1" as="geometry" />
        </mxCell>
        <mxCell id="KleUgi4IGlu6Z6MUiITj-79" value="&lt;font face=&quot;Comic Sans MS&quot;&gt;Next&lt;/font&gt;" style="edgeLabel;html=1;align=center;verticalAlign=middle;resizable=0;points=[];rounded=1;sketch=1;jiggle=2;curveFitting=1;strokeColor=default;fontFamily=Helvetica;fontSize=11;fontColor=default;labelBackgroundColor=default;fillColor=default;" vertex="1" connectable="0" parent="KleUgi4IGlu6Z6MUiITj-78">
          <mxGeometry x="0.0052" y="1" relative="1" as="geometry">
            <mxPoint as="offset" />
          </mxGeometry>
        </mxCell>
        <mxCell id="KleUgi4IGlu6Z6MUiITj-55" value="&lt;font face=&quot;Comic Sans MS&quot;&gt;Erp&lt;/font&gt;&lt;br&gt;&lt;div&gt;&lt;font face=&quot;Comic Sans MS&quot;&gt;Processor&lt;/font&gt;&lt;/div&gt;" style="rounded=1;whiteSpace=wrap;html=1;glass=0;sketch=1;curveFitting=1;jiggle=2;shadow=0;fillColor=#ffe6cc;strokeColor=#d79b00;" vertex="1" parent="1">
          <mxGeometry x="820" y="195" width="120" height="60" as="geometry" />
        </mxCell>
        <mxCell id="KleUgi4IGlu6Z6MUiITj-57" value="return json file" style="text;html=1;align=center;verticalAlign=middle;resizable=0;points=[];autosize=1;strokeColor=none;fillColor=none;fontFamily=Comic Sans MS;fontSize=11;fontColor=default;labelBackgroundColor=default;" vertex="1" parent="1">
          <mxGeometry x="720" y="185" width="100" height="30" as="geometry" />
        </mxCell>
        <mxCell id="KleUgi4IGlu6Z6MUiITj-81" value="" style="edgeStyle=orthogonalEdgeStyle;shape=connector;curved=1;rounded=0;sketch=1;jiggle=2;curveFitting=1;orthogonalLoop=1;jettySize=auto;html=1;strokeColor=#d6b656;align=center;verticalAlign=middle;fontFamily=Helvetica;fontSize=11;fontColor=default;labelBackgroundColor=default;endArrow=classic;fillColor=#fff2cc;" edge="1" parent="1" source="KleUgi4IGlu6Z6MUiITj-61" target="KleUgi4IGlu6Z6MUiITj-80">
          <mxGeometry relative="1" as="geometry" />
        </mxCell>
        <mxCell id="KleUgi4IGlu6Z6MUiITj-82" value="&lt;font face=&quot;Comic Sans MS&quot;&gt;Next&lt;/font&gt;" style="edgeLabel;html=1;align=center;verticalAlign=middle;resizable=0;points=[];rounded=1;sketch=1;jiggle=2;curveFitting=1;strokeColor=default;fontFamily=Helvetica;fontSize=11;fontColor=default;labelBackgroundColor=default;fillColor=default;" vertex="1" connectable="0" parent="KleUgi4IGlu6Z6MUiITj-81">
          <mxGeometry x="0.0134" relative="1" as="geometry">
            <mxPoint as="offset" />
          </mxGeometry>
        </mxCell>
        <mxCell id="KleUgi4IGlu6Z6MUiITj-61" value="&lt;font face=&quot;Comic Sans MS&quot;&gt;Database&lt;/font&gt;&lt;br&gt;&lt;div&gt;&lt;font face=&quot;Comic Sans MS&quot;&gt;Processor&lt;/font&gt;&lt;/div&gt;" style="rounded=1;whiteSpace=wrap;html=1;glass=0;sketch=1;curveFitting=1;jiggle=2;shadow=0;fillColor=#fff2cc;strokeColor=#d6b656;" vertex="1" parent="1">
          <mxGeometry x="820" y="305" width="120" height="60" as="geometry" />
        </mxCell>
        <mxCell id="KleUgi4IGlu6Z6MUiITj-64" value="&lt;font face=&quot;Comic Sans MS&quot;&gt;retrun json file&lt;/font&gt;" style="text;html=1;align=center;verticalAlign=middle;resizable=0;points=[];autosize=1;strokeColor=none;fillColor=none;fontFamily=Helvetica;fontSize=11;fontColor=default;labelBackgroundColor=default;" vertex="1" parent="1">
          <mxGeometry x="715" y="295" width="100" height="30" as="geometry" />
        </mxCell>
        <mxCell id="KleUgi4IGlu6Z6MUiITj-86" value="" style="edgeStyle=orthogonalEdgeStyle;shape=connector;curved=1;rounded=0;sketch=1;jiggle=2;curveFitting=1;orthogonalLoop=1;jettySize=auto;html=1;strokeColor=#6c8ebf;align=center;verticalAlign=middle;fontFamily=Helvetica;fontSize=11;fontColor=default;labelBackgroundColor=default;endArrow=classic;fillColor=#dae8fc;" edge="1" parent="1" source="KleUgi4IGlu6Z6MUiITj-65" target="KleUgi4IGlu6Z6MUiITj-85">
          <mxGeometry relative="1" as="geometry" />
        </mxCell>
        <mxCell id="KleUgi4IGlu6Z6MUiITj-89" value="Next" style="edgeLabel;html=1;align=center;verticalAlign=middle;resizable=0;points=[];rounded=1;sketch=1;jiggle=2;curveFitting=1;strokeColor=default;fontFamily=Comic Sans MS;fontSize=11;fontColor=default;labelBackgroundColor=default;fillColor=default;" vertex="1" connectable="0" parent="KleUgi4IGlu6Z6MUiITj-86">
          <mxGeometry x="-0.0009" relative="1" as="geometry">
            <mxPoint as="offset" />
          </mxGeometry>
        </mxCell>
        <mxCell id="KleUgi4IGlu6Z6MUiITj-65" value="&lt;span style=&quot;font-family: &amp;quot;Comic Sans MS&amp;quot;; font-size: 11px;&quot;&gt;File&lt;/span&gt;&lt;div style=&quot;font-family: &amp;quot;Comic Sans MS&amp;quot;; font-size: 11px;&quot;&gt;Processor&lt;/div&gt;" style="rounded=1;whiteSpace=wrap;html=1;glass=0;sketch=1;curveFitting=1;jiggle=2;shadow=0;fillColor=#dae8fc;strokeColor=#6c8ebf;" vertex="1" parent="1">
          <mxGeometry x="595" y="415" width="120" height="60" as="geometry" />
        </mxCell>
        <mxCell id="KleUgi4IGlu6Z6MUiITj-70" value="&lt;font face=&quot;Comic Sans MS&quot;&gt;return bool&lt;/font&gt;" style="text;html=1;align=center;verticalAlign=middle;resizable=0;points=[];autosize=1;strokeColor=none;fillColor=none;fontFamily=Helvetica;fontSize=11;fontColor=default;labelBackgroundColor=default;" vertex="1" parent="1">
          <mxGeometry x="740" y="405" width="80" height="30" as="geometry" />
        </mxCell>
        <mxCell id="KleUgi4IGlu6Z6MUiITj-72" value="&lt;font face=&quot;Comic Sans MS&quot;&gt;wait...&lt;/font&gt;" style="text;html=1;align=center;verticalAlign=middle;resizable=0;points=[];autosize=1;strokeColor=none;fillColor=none;fontFamily=Helvetica;fontSize=11;fontColor=default;labelBackgroundColor=default;" vertex="1" parent="1">
          <mxGeometry x="520" y="526" width="50" height="30" as="geometry" />
        </mxCell>
        <mxCell id="KleUgi4IGlu6Z6MUiITj-88" value="" style="edgeStyle=orthogonalEdgeStyle;shape=connector;curved=1;rounded=0;sketch=1;jiggle=2;curveFitting=1;orthogonalLoop=1;jettySize=auto;html=1;strokeColor=#82b366;align=center;verticalAlign=middle;fontFamily=Helvetica;fontSize=11;fontColor=default;labelBackgroundColor=default;endArrow=classic;fillColor=#d5e8d4;" edge="1" parent="1" source="KleUgi4IGlu6Z6MUiITj-74" target="KleUgi4IGlu6Z6MUiITj-87">
          <mxGeometry relative="1" as="geometry" />
        </mxCell>
        <mxCell id="KleUgi4IGlu6Z6MUiITj-91" value="Next" style="edgeLabel;html=1;align=center;verticalAlign=middle;resizable=0;points=[];rounded=1;sketch=1;jiggle=2;curveFitting=1;strokeColor=default;fontFamily=Comic Sans MS;fontSize=11;fontColor=default;labelBackgroundColor=default;fillColor=default;" vertex="1" connectable="0" parent="KleUgi4IGlu6Z6MUiITj-88">
          <mxGeometry x="0.0125" relative="1" as="geometry">
            <mxPoint as="offset" />
          </mxGeometry>
        </mxCell>
        <mxCell id="KleUgi4IGlu6Z6MUiITj-74" value="&lt;font face=&quot;Comic Sans MS&quot;&gt;Other&lt;/font&gt;&lt;br&gt;&lt;div&gt;&lt;font face=&quot;Comic Sans MS&quot;&gt;Processor&lt;/font&gt;&lt;/div&gt;" style="rounded=1;whiteSpace=wrap;html=1;glass=0;sketch=1;curveFitting=1;jiggle=2;shadow=0;align=center;verticalAlign=middle;fontFamily=Helvetica;fontSize=11;labelBackgroundColor=none;fillColor=#d5e8d4;strokeColor=#82b366;" vertex="1" parent="1">
          <mxGeometry x="595" y="527" width="120" height="59" as="geometry" />
        </mxCell>
        <mxCell id="KleUgi4IGlu6Z6MUiITj-77" value="Process&lt;div&gt;Result&lt;/div&gt;" style="ellipse;whiteSpace=wrap;html=1;fillColor=#ffe6cc;strokeColor=#d79b00;rounded=1;glass=0;sketch=1;curveFitting=1;jiggle=2;shadow=0;align=center;verticalAlign=middle;fontFamily=Comic Sans MS;fontSize=11;labelBackgroundColor=none;" vertex="1" parent="1">
          <mxGeometry x="1050" y="185" width="80" height="80" as="geometry" />
        </mxCell>
        <mxCell id="KleUgi4IGlu6Z6MUiITj-80" value="Process&lt;div&gt;Result&lt;/div&gt;" style="ellipse;whiteSpace=wrap;html=1;fillColor=#fff2cc;strokeColor=#d6b656;rounded=1;glass=0;sketch=1;curveFitting=1;jiggle=2;shadow=0;align=center;verticalAlign=middle;fontFamily=Comic Sans MS;fontSize=11;labelBackgroundColor=none;" vertex="1" parent="1">
          <mxGeometry x="1050" y="295" width="80" height="80" as="geometry" />
        </mxCell>
        <mxCell id="KleUgi4IGlu6Z6MUiITj-85" value="Process&lt;div&gt;Result&lt;/div&gt;" style="ellipse;whiteSpace=wrap;html=1;fillColor=#dae8fc;strokeColor=#6c8ebf;rounded=1;glass=0;sketch=1;curveFitting=1;jiggle=2;shadow=0;align=center;verticalAlign=middle;fontFamily=Comic Sans MS;fontSize=11;fontColor=default;labelBackgroundColor=none;" vertex="1" parent="1">
          <mxGeometry x="840" y="405" width="80" height="80" as="geometry" />
        </mxCell>
        <mxCell id="KleUgi4IGlu6Z6MUiITj-87" value="Process&lt;div&gt;Result&lt;/div&gt;" style="ellipse;whiteSpace=wrap;html=1;fontSize=11;fillColor=#d5e8d4;strokeColor=#82b366;rounded=1;glass=0;sketch=1;curveFitting=1;jiggle=2;shadow=0;labelBackgroundColor=none;align=center;verticalAlign=middle;fontFamily=Comic Sans MS;fontColor=default;" vertex="1" parent="1">
          <mxGeometry x="840" y="516" width="80" height="80" as="geometry" />
        </mxCell>
        <mxCell id="KleUgi4IGlu6Z6MUiITj-94" style="edgeStyle=orthogonalEdgeStyle;shape=connector;curved=1;rounded=0;sketch=1;jiggle=2;curveFitting=1;orthogonalLoop=1;jettySize=auto;html=1;entryX=0;entryY=0.5;entryDx=0;entryDy=0;strokeColor=default;align=center;verticalAlign=middle;fontFamily=Helvetica;fontSize=11;fontColor=default;labelBackgroundColor=default;endArrow=classic;" edge="1" parent="1" source="KleUgi4IGlu6Z6MUiITj-93" target="KleUgi4IGlu6Z6MUiITj-55">
          <mxGeometry relative="1" as="geometry" />
        </mxCell>
        <mxCell id="KleUgi4IGlu6Z6MUiITj-95" value="&lt;font face=&quot;Comic Sans MS&quot;&gt;Next&lt;/font&gt;" style="edgeLabel;html=1;align=center;verticalAlign=middle;resizable=0;points=[];rounded=1;sketch=1;jiggle=2;curveFitting=1;strokeColor=default;fontFamily=Helvetica;fontSize=11;fontColor=default;labelBackgroundColor=default;fillColor=default;" vertex="1" connectable="0" parent="KleUgi4IGlu6Z6MUiITj-94">
          <mxGeometry x="0.0201" y="1" relative="1" as="geometry">
            <mxPoint as="offset" />
          </mxGeometry>
        </mxCell>
        <mxCell id="KleUgi4IGlu6Z6MUiITj-93" value="File&lt;div&gt;Processor&lt;/div&gt;" style="whiteSpace=wrap;html=1;rounded=1;sketch=1;jiggle=2;curveFitting=1;strokeColor=#d79b00;align=center;verticalAlign=middle;fontFamily=Comic Sans MS;fontSize=11;labelBackgroundColor=none;fillColor=#ffe6cc;" vertex="1" parent="1">
          <mxGeometry x="595" y="195" width="120" height="60" as="geometry" />
        </mxCell>
        <mxCell id="KleUgi4IGlu6Z6MUiITj-100" style="edgeStyle=orthogonalEdgeStyle;shape=connector;curved=1;rounded=0;sketch=1;jiggle=2;curveFitting=1;orthogonalLoop=1;jettySize=auto;html=1;entryX=0;entryY=0.5;entryDx=0;entryDy=0;strokeColor=default;align=center;verticalAlign=middle;fontFamily=Helvetica;fontSize=11;fontColor=default;labelBackgroundColor=default;endArrow=classic;" edge="1" parent="1" source="KleUgi4IGlu6Z6MUiITj-98" target="KleUgi4IGlu6Z6MUiITj-61">
          <mxGeometry relative="1" as="geometry" />
        </mxCell>
        <mxCell id="KleUgi4IGlu6Z6MUiITj-102" value="Next" style="edgeLabel;html=1;align=center;verticalAlign=middle;resizable=0;points=[];rounded=1;sketch=1;jiggle=2;curveFitting=1;strokeColor=default;fontFamily=Comic Sans MS;fontSize=11;fontColor=default;labelBackgroundColor=default;fillColor=default;" vertex="1" connectable="0" parent="KleUgi4IGlu6Z6MUiITj-100">
          <mxGeometry x="-0.0248" relative="1" as="geometry">
            <mxPoint as="offset" />
          </mxGeometry>
        </mxCell>
        <mxCell id="KleUgi4IGlu6Z6MUiITj-98" value="&lt;span style=&quot;font-family: &amp;quot;Comic Sans MS&amp;quot;; font-size: 11px;&quot;&gt;File&lt;/span&gt;&lt;div style=&quot;font-family: &amp;quot;Comic Sans MS&amp;quot;; font-size: 11px;&quot;&gt;Processor&lt;/div&gt;" style="rounded=1;whiteSpace=wrap;html=1;glass=0;sketch=1;curveFitting=1;jiggle=2;shadow=0;fillColor=#fff2cc;strokeColor=#d6b656;" vertex="1" parent="1">
          <mxGeometry x="595" y="305" width="120" height="60" as="geometry" />
        </mxCell>
      </root>
    </mxGraphModel>
  </diagram>
</mxfile>
